Coordinates
version=1
nRows=16
nColumns=40
inDegrees=yes

Units are S.I. units (second, meters, Newtons, ...)
Angles are in degrees.

endheader
time	pelvis_tilt	pelvis_list	pelvis_rotation	pelvis_tx	pelvis_ty	pelvis_tz	hip_flexion_r	hip_adduction_r	hip_rotation_r	knee_angle_r	knee_angle_r_beta	ankle_angle_r	subtalar_angle_r	mtp_angle_r	hip_flexion_l	hip_adduction_l	hip_rotation_l	knee_angle_l	knee_angle_l_beta	ankle_angle_l	subtalar_angle_l	mtp_angle_l	lumbar_extension	lumbar_bending	lumbar_rotation	arm_flex_r	arm_add_r	arm_rot_r	elbow_flex_r	pro_sup_r	wrist_flex_r	wrist_dev_r	arm_flex_l	arm_add_l	arm_rot_l	elbow_flex_l	pro_sup_l	wrist_flex_l	wrist_dev_l
     19.37000000	     -2.42699740	     -4.58674814	      1.79339896	      1.05750891	      0.92877701	      0.49718023	     12.65228570	      2.45451197	    -13.86307247	     19.95774238	     19.95774238	     11.25813951	     -3.66573256	     -4.70689395	     29.77395690	    -13.57297412	     -0.01340456	     62.04456220	     62.04456220	      8.30861993	    -18.46582425	     12.16446790	    -11.17289716	      6.29706662	      3.32391202	     17.31566167	    -17.66066330	     -0.11442916	     48.78767998	     45.70091841	      0.00000000	      0.00000000	      4.69216744	    -10.81854087	     -6.18634779	     38.69894402	     45.54082680	      0.00000000	      0.00000000
     19.38392857	     -2.66790331	     -4.60735329	      2.32751701	      1.05594316	      0.92888480	      0.49802187	     12.42720555	      2.55140217	    -14.19894135	     19.63516504	     19.63516504	     11.38428719	     -3.84329358	     -4.67194196	     31.05996022	    -13.81300689	     -0.53601367	     59.43935265	     59.43935265	      8.73876777	    -18.72727851	     12.42769502	    -11.11653776	      6.22353956	      3.47760186	     17.99404031	    -17.89361330	     -0.21885404	     49.33058395	     45.68885336	      0.00000000	      0.00000000	      3.92312955	    -10.88709381	     -6.19244957	     38.24961724	     45.53308360	      0.00000000	      0.00000000
     19.39785714	     -2.77926284	     -4.59404833	      2.94322444	      1.05456773	      0.92932354	      0.49869228	     11.75930589	      2.71186250	    -14.45659302	     18.72035970	     18.72035970	     11.23534645	     -4.15303152	     -5.02030767	     32.00174444	    -13.79896953	     -0.93539549	     56.50906930	     56.50906930	      9.45820531	    -18.96407559	     13.93068970	    -11.23363330	      6.16158924	      3.32274900	     17.74327926	    -18.32272353	      0.41692238	     53.35241347	     45.50432558	      0.00000000	      0.00000000	      3.87730910	    -10.92697048	     -6.42198865	     35.27227209	     45.62303245	      0.00000000	      0.00000000
     19.41178571	     -3.01949804	     -4.53298678	      3.46420513	      1.05311686	      0.92950467	      0.49928790	     11.40348115	      2.75247210	    -14.73732424	     18.14913213	     18.14913213	     11.31300218	     -4.27466995	     -4.93729401	     32.80264449	    -13.69151328	     -1.50681357	     53.21581191	     53.21581191	      9.77535541	    -19.04856242	     14.36632925	    -11.16244112	      5.99502132	      3.15104228	     18.49351537	    -18.30014599	      0.30483955	     54.28664214	     45.47906328	      0.00000000	      0.00000000	      3.03413185	    -11.10772571	     -6.41703225	     34.54989850	     45.61659395	      0.00000000	      0.00000000
     19.42571429	     -3.22002093	     -4.52970332	      3.96337930	      1.05167618	      0.92963509	      0.49976344	     11.03708791	      2.84535770	    -15.03726363	     17.62660991	     17.62660991	     11.38866782	     -4.37539605	     -4.90955317	     33.40744461	    -13.47501041	     -1.90826366	     49.74466657	     49.74466657	     10.00649501	    -19.06715342	     14.89937516	    -11.13341779	      5.88818836	      2.94876139	     19.25424016	    -18.30541854	      0.25461324	     55.47597789	     45.44261119	      0.00000000	      0.00000000	      2.22386958	    -11.24709828	     -6.40935318	     33.69366920	     45.61032206	      0.00000000	      0.00000000
     19.43964286	     -3.41913221	     -4.46363224	      4.43209796	      1.05031596	      0.92973755	      0.49997627	     10.64132956	      2.85543288	    -15.31307969	     17.05927034	     17.05927034	     11.46679909	     -4.39262222	     -4.92301632	     33.81968637	    -13.02274360	     -2.13977959	     46.12797467	     46.12797467	     10.17042847	    -19.01272083	     15.37715067	    -11.15423769	      5.77021664	      2.67478617	     19.92628037	    -18.23476259	      0.29638698	     57.03374133	     45.38918665	      0.00000000	      0.00000000	      1.46854809	    -11.39881635	     -6.40255546	     32.72783963	     45.60606703	      0.00000000	      0.00000000
     19.45357143	     -3.58191853	     -4.48076864	      4.86749178	      1.04894408	      0.92974694	      0.49995472	     10.23451824	      2.90829467	    -15.77737776	     16.52807895	     16.52807895	     11.40805064	     -4.16726704	     -5.52325788	     34.07648719	    -12.54227282	     -2.14516970	     42.44349857	     42.44349857	      9.90836228	    -18.84493217	     14.88143425	    -11.28737420	      5.82358306	      3.20884606	     19.10166183	    -19.33817129	      0.79976990	     62.02784137	     45.19800808	      0.00000000	      0.00000000	      1.77666925	    -11.20493609	     -6.44379948	     30.37363307	     45.67181839	      0.00000000	      0.00000000
     19.46750000	     -3.83302843	     -4.44263761	      5.25031166	      1.04755649	      0.92963182	      0.49976683	      9.94878861	      2.90113555	    -16.09190190	     16.04628476	     16.04628476	     11.47704549	     -4.04611739	     -5.60682452	     34.31828058	    -11.87475201	     -1.86841879	     38.80983878	     38.80983878	      9.69130952	    -18.54704392	     14.76934616	    -11.25394887	      5.75472451	      2.97510492	     19.79502295	    -19.18312047	      0.53378879	     63.76189509	     45.15681549	      0.00000000	      0.00000000	      1.00272156	    -11.26048409	     -6.39021542	     29.66817451	     45.66990116	      0.00000000	      0.00000000
     19.48142857	     -4.06248331	     -4.34963625	      5.54495634	      1.04625705	      0.92954491	      0.49947192	      9.67448097	      2.82146134	    -16.33793284	     15.65488484	     15.65488484	     11.58692562	     -3.92043632	     -5.68331407	     34.39891236	    -11.13076278	     -1.41555947	     35.27037449	     35.27037449	      9.49557807	    -18.00924689	     14.70288688	    -11.24151325	      5.56127992	      2.87575393	     20.44112704	    -19.11512702	      0.45419670	     65.30939861	     45.11307388	      0.00000000	      0.00000000	      0.28174201	    -11.27521195	     -6.34756325	     29.24242049	     45.66140279	      0.00000000	      0.00000000
     19.49535714	     -4.29709072	     -4.32803622	      5.80486736	      1.04499885	      0.92931798	      0.49902762	      9.41316831	      2.80086104	    -16.61179897	     15.28495580	     15.28495580	     11.72878172	     -3.69535960	     -5.80071412	     34.52611090	    -10.51915391	     -0.90950718	     32.09014251	     32.09014251	      9.26305267	    -16.99884420	     14.46844596	    -11.20006317	      5.51257429	      2.80694802	     21.07165874	    -19.03441355	      0.42363333	     67.04520500	     45.06129191	      0.00000000	      0.00000000	     -0.47756232	    -11.27058161	     -6.30018751	     28.91931746	     45.64963485	      0.00000000	      0.00000000
     19.50928571	     -4.49588935	     -4.34011711	      6.01410971	      1.04384876	      0.92900763	      0.49840161	      9.10083324	      2.78603438	    -17.03086742	     14.89977637	     14.89977637	     11.82397114	     -3.14825720	     -6.20415380	     34.50909039	    -10.00885058	     -0.41209455	     29.05598958	     29.05598958	      8.30421512	    -15.85582153	     12.05264395	    -11.29705156	      5.51844686	      3.28695447	     20.74275491	    -19.65217813	      0.29941504	     71.05531066	     44.95191478	      0.00000000	      0.00000000	     -1.02159929	    -11.13963101	     -5.94211720	     29.09010849	     45.62284083	      0.00000000	      0.00000000
     19.52321429	     -4.81516098	     -4.43179479	      6.17191182	      1.04267509	      0.92849888	      0.49776216	      8.99365626	      2.87602596	    -17.17532870	     14.62135428	     14.62135428	     11.96376255	     -3.10249417	     -6.24327957	     34.80453852	     -9.60928770	      0.19355220	     26.76833549	     26.76833549	      8.35151854	    -14.37493266	     12.18170161	    -11.10874263	      5.58184594	      3.36690185	     21.61664163	    -19.54157874	      0.16286331	     71.88364197	     44.93485080	      0.00000000	      0.00000000	     -1.63655133	    -10.99569488	     -5.86867360	     28.83726797	     45.60452372	      0.00000000	      0.00000000
     19.53714286	     -4.85390565	     -4.40891517	      6.28878761	      1.04191901	      0.92853119	      0.49708496	      8.36342603	      2.90778601	    -17.38358585	     14.00902168	     14.00902168	     12.06270080	     -2.56326626	     -6.31085158	     34.68678039	     -9.27457440	      0.42561045	     24.80896243	     24.80896243	      8.30015150	    -12.61858438	     11.92216138	    -11.28033715	      5.47898207	      2.96911467	     22.40809231	    -18.95563765	      0.13487714	     74.21762735	     44.86907602	      0.00000000	      0.00000000	     -2.57820394	    -10.96941251	     -5.69176542	     28.71672712	     45.57139412	      0.00000000	      0.00000000
     19.55107143	     -5.03462119	     -4.42923500	      6.32394396	      1.04125587	      0.92825858	      0.49627903	      7.97036420	      2.94651986	    -17.52741137	     13.55853381	     13.55853381	     12.19120733	     -2.17465921	     -6.38121349	     34.74056688	     -9.00247134	      0.61640266	     23.34158208	     23.34158208	      8.19784308	    -11.23471448	     11.71888072	    -11.21381790	      5.43452094	      3.02501141	     23.01326672	    -18.72258120	      0.11860374	     75.99725832	     44.82047661	      0.00000000	      0.00000000	     -3.30637963	    -10.84080027	     -5.54260295	     28.81932492	     45.54342812	      0.00000000	      0.00000000
     19.56500000	     -5.16950024	     -4.50560250	      6.31060659	      1.04079171	      0.92794412	      0.49542120	      7.48726804	      3.06032972	    -17.66889935	     13.04437112	     13.04437112	     12.33181157	     -1.70350687	     -6.43055421	     34.77641056	     -8.84842896	      0.68300842	     22.38953572	     22.38953572	      8.04318681	    -10.17612651	     11.41589514	    -11.20889396	      5.45164887	      3.05289992	     23.61227478	    -18.42912001	      0.10805922	     77.92307715	     44.76843200	      0.00000000	      0.00000000	     -4.05290466	    -10.69252129	     -5.36552263	     29.01431694	     45.51100249	      0.00000000	      0.00000000
     19.57892857	     -5.39688259	     -4.62942734	      6.22223877	      1.04041430	      0.92735816	      0.49446675	      7.21639898	      3.18593009	    -17.64023612	     12.74536919	     12.74536919	     12.51470634	     -1.43518236	     -6.48645344	     34.91653177	     -8.74314698	      0.73182018	     21.89606901	     21.89606901	      7.84764615	     -9.69817719	     11.38961380	    -10.99919793	      5.50455287	      3.34096613	     24.40437512	    -18.29245100	      0.04753822	     78.85464637	     44.74600285	      0.00000000	      0.00000000	     -4.53690161	    -10.43091590	     -5.27857891	     29.00266790	     45.49191680	      0.00000000	      0.00000000
